<?xml version="1.0" encoding="utf-8"?>
<svg xmlns="http://www.w3.org/2000/svg" width="923" height="110" viewBox="0 0 923 110" fill="none">
<path d="M102.844 75.2715C102.844 79.5013 102.036 83.4935 100.42 87.248C98.8516 90.9551 96.6654 94.2106 93.8613 97.0146C91.1048 99.7712 87.8493 101.957 84.0947 103.573C80.3877 105.142 76.4193 105.926 72.1895 105.926C68.3874 105.926 64.7279 105.26 61.2109 103.93C57.7415 102.599 54.6048 100.65 51.8008 98.084C48.9967 100.65 45.8363 102.599 42.3193 103.93C38.8024 105.26 35.1429 105.926 31.3408 105.926C27.111 105.926 23.1188 105.142 19.3643 103.573C15.6572 101.957 12.4017 99.7712 9.59766 97.0146C6.84115 94.2106 4.65495 90.9551 3.03906 87.248C1.4707 83.4935 0.686523 79.5013 0.686523 75.2715V2.27148H21.1465V75.2715C21.1465 76.6973 21.4079 78.0518 21.9307 79.335C22.4535 80.5706 23.1663 81.6637 24.0693 82.6143C25.0199 83.5173 26.113 84.2301 27.3486 84.7529C28.5843 85.2757 29.915 85.5371 31.3408 85.5371C32.7666 85.5371 34.0973 85.2757 35.333 84.7529C36.5687 84.2301 37.638 83.5173 38.541 82.6143C39.4915 81.6637 40.2282 80.5706 40.751 79.335C41.2738 78.0518 41.5352 76.6973 41.5352 75.2715V2.27148H61.9951V75.2715C61.9951 76.6973 62.2565 78.0518 62.7793 79.335C63.3021 80.5706 64.015 81.6637 64.918 82.6143C65.8685 83.5173 66.9616 84.2301 68.1973 84.7529C69.4329 85.2757 70.7637 85.5371 72.1895 85.5371C73.6152 85.5371 74.946 85.2757 76.1816 84.7529C77.4173 84.2301 78.4867 83.5173 79.3896 82.6143C80.3402 81.6637 81.0768 80.5706 81.5996 79.335C82.1699 78.0518 82.4551 76.6973 82.4551 75.2715V2.27148H102.844V75.2715ZM141.625 104.5H121.165V2.27148H141.625V104.5ZM203.575 104.5H183.187V22.7314H152.461V2.27148H234.229V22.7314H203.575V104.5ZM265.525 104.5H245.065V2.27148H265.525V43.1914H306.374V2.27148H326.834V104.5H306.374V63.6514H265.525V104.5ZM339.88 32.9258C339.88 28.696 340.688 24.7275 342.304 21.0205C343.92 17.3135 346.106 14.0817 348.862 11.3252C351.666 8.52116 354.922 6.3112 358.629 4.69531C362.336 3.07943 366.304 2.27148 370.534 2.27148H417.442V22.7314H370.534C369.108 22.7314 367.778 22.9928 366.542 23.5156C365.306 24.0384 364.213 24.7751 363.263 25.7256C362.36 26.6286 361.647 27.6979 361.124 28.9336C360.601 30.1693 360.34 31.5 360.34 32.9258C360.34 34.3516 360.601 35.7061 361.124 36.9893C361.647 38.2249 362.36 39.318 363.263 40.2686C364.213 41.1715 365.306 41.8844 366.542 42.4072C367.778 42.93 369.108 43.1914 370.534 43.1914H390.994C395.224 43.1914 399.192 43.9993 402.899 45.6152C406.654 47.1836 409.91 49.3698 412.666 52.1738C415.47 54.9303 417.656 58.1859 419.225 61.9404C420.84 65.6475 421.648 69.6159 421.648 73.8457C421.648 78.0755 420.84 82.0439 419.225 85.751C417.656 89.458 415.47 92.7135 412.666 95.5176C409.91 98.2741 406.654 100.46 402.899 102.076C399.192 103.692 395.224 104.5 390.994 104.5H345.583V84.04H390.994C392.42 84.04 393.751 83.7786 394.986 83.2559C396.222 82.7331 397.291 82.0202 398.194 81.1172C399.145 80.1667 399.882 79.0736 400.404 77.8379C400.927 76.6022 401.188 75.2715 401.188 73.8457C401.188 72.4199 400.927 71.0892 400.404 69.8535C399.882 68.6178 399.145 67.5485 398.194 66.6455C397.291 65.695 396.222 64.9583 394.986 64.4355C393.751 63.9128 392.42 63.6514 390.994 63.6514H370.534C366.304 63.6514 362.336 62.8434 358.629 61.2275C354.922 59.6117 351.666 57.4255 348.862 54.6689C346.106 51.8649 343.92 48.6094 342.304 44.9023C340.688 41.1478 339.88 37.1556 339.88 32.9258ZM505.199 104.5H435.122V2.27148H505.199V22.7314H455.582V43.1914H489.159V63.6514H455.582V84.04H505.199V104.5ZM539.988 104.5H519.528V2.27148H539.988V104.5ZM553.034 32.9258C553.034 28.696 553.842 24.7275 555.458 21.0205C557.074 17.3135 559.26 14.0817 562.017 11.3252C564.821 8.52116 568.076 6.3112 571.783 4.69531C575.49 3.07943 579.459 2.27148 583.688 2.27148H630.597V22.7314H583.688C582.263 22.7314 580.932 22.9928 579.696 23.5156C578.461 24.0384 577.368 24.7751 576.417 25.7256C575.514 26.6286 574.801 27.6979 574.278 28.9336C573.756 30.1693 573.494 31.5 573.494 32.9258C573.494 34.3516 573.756 35.7061 574.278 36.9893C574.801 38.2249 575.514 39.318 576.417 40.2686C577.368 41.1715 578.461 41.8844 579.696 42.4072C580.932 42.93 582.263 43.1914 583.688 43.1914H604.148C608.378 43.1914 612.347 43.9993 616.054 45.6152C619.808 47.1836 623.064 49.3698 625.82 52.1738C628.624 54.9303 630.811 58.1859 632.379 61.9404C633.995 65.6475 634.803 69.6159 634.803 73.8457C634.803 78.0755 633.995 82.0439 632.379 85.751C630.811 89.458 628.624 92.7135 625.82 95.5176C623.064 98.2741 619.808 100.46 616.054 102.076C612.347 103.692 608.378 104.5 604.148 104.5H558.737V84.04H604.148C605.574 84.04 606.905 83.7786 608.141 83.2559C609.376 82.7331 610.446 82.0202 611.349 81.1172C612.299 80.1667 613.036 79.0736 613.559 77.8379C614.081 76.6022 614.343 75.2715 614.343 73.8457C614.343 72.4199 614.081 71.0892 613.559 69.8535C613.036 68.6178 612.299 67.5485 611.349 66.6455C610.446 65.695 609.376 64.9583 608.141 64.4355C606.905 63.9128 605.574 63.6514 604.148 63.6514H583.688C579.459 63.6514 575.49 62.8434 571.783 61.2275C568.076 59.6117 564.821 57.4255 562.017 54.6689C559.26 51.8649 557.074 48.6094 555.458 44.9023C553.842 41.1478 553.034 37.1556 553.034 32.9258ZM749.721 104.5H729.332V31.5C729.332 30.0742 729.047 28.7435 728.477 27.5078C727.954 26.2721 727.217 25.2028 726.267 24.2998C725.364 23.3493 724.294 22.6126 723.059 22.0898C721.823 21.5671 720.492 21.3057 719.066 21.3057C717.641 21.3057 716.31 21.5671 715.074 22.0898C713.839 22.6126 712.745 23.3493 711.795 24.2998C710.892 25.2028 710.179 26.2721 709.656 27.5078C709.133 28.7435 708.872 30.0742 708.872 31.5V104.5H688.412V31.5C688.412 30.0742 688.151 28.7435 687.628 27.5078C687.105 26.2721 686.368 25.2028 685.418 24.2998C684.515 23.3493 683.446 22.6126 682.21 22.0898C680.974 21.5671 679.644 21.3057 678.218 21.3057C676.792 21.3057 675.461 21.5671 674.226 22.0898C672.99 22.6126 671.897 23.3493 670.946 24.2998C670.043 25.2028 669.33 26.2721 668.808 27.5078C668.285 28.7435 668.023 30.0742 668.023 31.5V104.5H647.563V31.5C647.563 27.2702 648.348 23.3018 649.916 19.5947C651.532 15.8402 653.718 12.5846 656.475 9.82812C659.279 7.02409 662.534 4.83789 666.241 3.26953C669.996 1.65365 673.988 0.845703 678.218 0.845703C682.02 0.845703 685.679 1.53483 689.196 2.91309C692.713 4.24382 695.874 6.19238 698.678 8.75879C701.482 6.19238 704.618 4.24382 708.088 2.91309C711.605 1.53483 715.264 0.845703 719.066 0.845703C723.296 0.845703 727.265 1.65365 730.972 3.26953C734.726 4.83789 737.982 7.02409 740.738 9.82812C743.542 12.5846 745.729 15.8402 747.297 19.5947C748.913 23.3018 749.721 27.2702 749.721 31.5V104.5ZM788.502 104.5H768.042V2.27148H788.502V104.5ZM889.162 94.0205C884.41 98.1077 879.087 101.244 873.193 103.431C867.3 105.617 861.193 106.71 854.872 106.71C850.024 106.71 845.343 106.068 840.828 104.785C836.361 103.549 832.155 101.791 828.21 99.5098C824.313 97.181 820.748 94.4007 817.517 91.1689C814.285 87.9372 811.505 84.3727 809.176 80.4756C806.895 76.5309 805.112 72.3249 803.829 67.8574C802.593 63.3424 801.976 58.6611 801.976 53.8135C801.976 48.9658 802.593 44.2845 803.829 39.7695C805.112 35.2546 806.895 31.0485 809.176 27.1514C811.505 23.2067 814.285 19.6185 817.517 16.3867C820.748 13.1549 824.313 10.3984 828.21 8.11719C832.155 5.78841 836.361 4.00618 840.828 2.77051C845.343 1.4873 850.024 0.845703 854.872 0.845703C861.193 0.845703 867.3 1.9388 873.193 4.125C879.087 6.26367 884.41 9.40039 889.162 13.5352L878.326 31.3574C875.332 28.1257 871.791 25.6543 867.704 23.9434C863.617 22.1849 859.34 21.3057 854.872 21.3057C850.357 21.3057 846.127 22.1611 842.183 23.8721C838.238 25.583 834.792 27.9118 831.846 30.8584C828.899 33.7575 826.57 37.2031 824.859 41.1953C823.148 45.14 822.293 49.346 822.293 53.8135C822.293 58.2809 823.148 62.487 824.859 66.4316C826.57 70.3288 828.899 73.7507 831.846 76.6973C834.792 79.6439 838.238 81.9727 842.183 83.6836C846.127 85.3945 850.357 86.25 854.872 86.25C859.34 86.25 863.617 85.3945 867.704 83.6836C871.791 81.9251 875.332 79.43 878.326 76.1982L889.162 94.0205ZM922.953 97.2285C922.953 98.9395 922.644 100.555 922.026 102.076C921.409 103.549 920.553 104.833 919.46 105.926C918.367 107.019 917.084 107.874 915.61 108.492C914.137 109.158 912.545 109.49 910.834 109.49C909.171 109.49 907.578 109.158 906.058 108.492C904.584 107.874 903.277 107.019 902.137 105.926C901.044 104.833 900.164 103.549 899.499 102.076C898.881 100.555 898.572 98.9395 898.572 97.2285C898.572 95.5651 898.881 93.9967 899.499 92.5234C900.164 91.0501 901.044 89.7669 902.137 88.6738C903.277 87.5807 904.584 86.7253 906.058 86.1074C907.578 85.4421 909.171 85.1094 910.834 85.1094C912.545 85.1094 914.137 85.4421 915.61 86.1074C917.084 86.7253 918.367 87.5807 919.46 88.6738C920.553 89.7669 921.409 91.0501 922.026 92.5234C922.644 93.9967 922.953 95.5651 922.953 97.2285Z" fill="#FF0000"/>
</svg>