<?xml version="1.0" encoding="utf-8"?>
<svg xmlns="http://www.w3.org/2000/svg" width="960" height="155" viewBox="0 0 960 155" fill="none">
<path d="M131.465 99.9707C131.465 104.316 130.635 108.418 128.975 112.275C127.363 116.084 125.117 119.429 122.236 122.31C119.404 125.142 116.06 127.388 112.202 129.048C108.394 130.659 104.316 131.465 99.9707 131.465C96.0645 131.465 92.3047 130.781 88.6914 129.414C85.127 128.047 81.9043 126.045 79.0234 123.408C76.1426 126.045 72.8955 128.047 69.2822 129.414C65.6689 130.781 61.9092 131.465 58.0029 131.465C53.6572 131.465 49.5557 130.659 45.6982 129.048C41.8896 127.388 38.5449 125.142 35.6641 122.31C32.832 119.429 30.5859 116.084 28.9258 112.275C27.3145 108.418 26.5088 104.316 26.5088 99.9707V24.9707H47.5293V99.9707C47.5293 101.436 47.7979 102.827 48.335 104.146C48.8721 105.415 49.6045 106.538 50.5322 107.515C51.5088 108.442 52.6318 109.175 53.9014 109.712C55.1709 110.249 56.5381 110.518 58.0029 110.518C59.4678 110.518 60.835 110.249 62.1045 109.712C63.374 109.175 64.4727 108.442 65.4004 107.515C66.377 106.538 67.1338 105.415 67.6709 104.146C68.208 102.827 68.4766 101.436 68.4766 99.9707V24.9707H89.4971V99.9707C89.4971 101.436 89.7656 102.827 90.3027 104.146C90.8398 105.415 91.5723 106.538 92.5 107.515C93.4766 108.442 94.5996 109.175 95.8691 109.712C97.1387 110.249 98.5059 110.518 99.9707 110.518C101.436 110.518 102.803 110.249 104.072 109.712C105.342 109.175 106.44 108.442 107.368 107.515C108.345 106.538 109.102 105.415 109.639 104.146C110.225 102.827 110.518 101.436 110.518 99.9707V24.9707H131.465V99.9707ZM171.309 130H150.288V24.9707H171.309V130ZM234.956 130H214.009V45.9912H182.441V24.9707H266.45V45.9912H234.956V130ZM298.604 130H277.583V24.9707H298.604V67.0117H340.571V24.9707H361.592V130H340.571V88.0322H298.604V130ZM374.995 56.4648C374.995 52.1191 375.825 48.042 377.485 44.2334C379.146 40.4248 381.392 37.1045 384.224 34.2725C387.104 31.3916 390.449 29.1211 394.258 27.4609C398.066 25.8008 402.144 24.9707 406.489 24.9707H454.683V45.9912H406.489C405.024 45.9912 403.657 46.2598 402.388 46.7969C401.118 47.334 399.995 48.0908 399.019 49.0674C398.091 49.9951 397.358 51.0938 396.821 52.3633C396.284 53.6328 396.016 55 396.016 56.4648C396.016 57.9297 396.284 59.3213 396.821 60.6396C397.358 61.9092 398.091 63.0322 399.019 64.0088C399.995 64.9365 401.118 65.6689 402.388 66.2061C403.657 66.7432 405.024 67.0117 406.489 67.0117H427.51C431.855 67.0117 435.933 67.8418 439.741 69.502C443.599 71.1133 446.943 73.3594 449.775 76.2402C452.656 79.0723 454.902 82.417 456.514 86.2744C458.174 90.083 459.004 94.1602 459.004 98.5059C459.004 102.852 458.174 106.929 456.514 110.737C454.902 114.546 452.656 117.891 449.775 120.771C446.943 123.604 443.599 125.85 439.741 127.51C435.933 129.17 431.855 130 427.51 130H380.854V108.979H427.51C428.975 108.979 430.342 108.711 431.611 108.174C432.881 107.637 433.979 106.904 434.907 105.977C435.884 105 436.641 103.877 437.178 102.607C437.715 101.338 437.983 99.9707 437.983 98.5059C437.983 97.041 437.715 95.6738 437.178 94.4043C436.641 93.1348 435.884 92.0361 434.907 91.1084C433.979 90.1318 432.881 89.375 431.611 88.8379C430.342 88.3008 428.975 88.0322 427.51 88.0322H406.489C402.144 88.0322 398.066 87.2021 394.258 85.542C390.449 83.8818 387.104 81.6357 384.224 78.8037C381.392 75.9229 379.146 72.5781 377.485 68.7695C375.825 64.9121 374.995 60.8105 374.995 56.4648ZM544.844 130H472.847V24.9707H544.844V45.9912H493.867V67.0117H528.364V88.0322H493.867V108.979H544.844V130ZM580.586 130H559.565V24.9707H580.586V130ZM593.989 56.4648C593.989 52.1191 594.819 48.042 596.479 44.2334C598.14 40.4248 600.386 37.1045 603.218 34.2725C606.099 31.3916 609.443 29.1211 613.252 27.4609C617.061 25.8008 621.138 24.9707 625.483 24.9707H673.677V45.9912H625.483C624.019 45.9912 622.651 46.2598 621.382 46.7969C620.112 47.334 618.989 48.0908 618.013 49.0674C617.085 49.9951 616.353 51.0938 615.815 52.3633C615.278 53.6328 615.01 55 615.01 56.4648C615.01 57.9297 615.278 59.3213 615.815 60.6396C616.353 61.9092 617.085 63.0322 618.013 64.0088C618.989 64.9365 620.112 65.6689 621.382 66.2061C622.651 66.7432 624.019 67.0117 625.483 67.0117H646.504C650.85 67.0117 654.927 67.8418 658.735 69.502C662.593 71.1133 665.938 73.3594 668.77 76.2402C671.65 79.0723 673.896 82.417 675.508 86.2744C677.168 90.083 677.998 94.1602 677.998 98.5059C677.998 102.852 677.168 106.929 675.508 110.737C673.896 114.546 671.65 117.891 668.77 120.771C665.938 123.604 662.593 125.85 658.735 127.51C654.927 129.17 650.85 130 646.504 130H599.849V108.979H646.504C647.969 108.979 649.336 108.711 650.605 108.174C651.875 107.637 652.974 106.904 653.901 105.977C654.878 105 655.635 103.877 656.172 102.607C656.709 101.338 656.978 99.9707 656.978 98.5059C656.978 97.041 656.709 95.6738 656.172 94.4043C655.635 93.1348 654.878 92.0361 653.901 91.1084C652.974 90.1318 651.875 89.375 650.605 88.8379C649.336 88.3008 647.969 88.0322 646.504 88.0322H625.483C621.138 88.0322 617.061 87.2021 613.252 85.542C609.443 83.8818 606.099 81.6357 603.218 78.8037C600.386 75.9229 598.14 72.5781 596.479 68.7695C594.819 64.9121 593.989 60.8105 593.989 56.4648ZM796.064 130H775.117V55C775.117 53.5352 774.824 52.168 774.238 50.8984C773.701 49.6289 772.944 48.5303 771.968 47.6025C771.04 46.626 769.941 45.8691 768.672 45.332C767.402 44.7949 766.035 44.5264 764.57 44.5264C763.105 44.5264 761.738 44.7949 760.469 45.332C759.199 45.8691 758.076 46.626 757.1 47.6025C756.172 48.5303 755.439 49.6289 754.902 50.8984C754.365 52.168 754.097 53.5352 754.097 55V130H733.076V55C733.076 53.5352 732.808 52.168 732.271 50.8984C731.733 49.6289 730.977 48.5303 730 47.6025C729.072 46.626 727.974 45.8691 726.704 45.332C725.435 44.7949 724.067 44.5264 722.603 44.5264C721.138 44.5264 719.771 44.7949 718.501 45.332C717.231 45.8691 716.108 46.626 715.132 47.6025C714.204 48.5303 713.472 49.6289 712.935 50.8984C712.397 52.168 712.129 53.5352 712.129 55V130H691.108V55C691.108 50.6543 691.914 46.5771 693.525 42.7686C695.186 38.9111 697.432 35.5664 700.264 32.7344C703.145 29.8535 706.489 27.6074 710.298 25.9961C714.155 24.3359 718.257 23.5059 722.603 23.5059C726.509 23.5059 730.269 24.2139 733.882 25.6299C737.495 26.9971 740.742 28.999 743.623 31.6357C746.504 28.999 749.727 26.9971 753.291 25.6299C756.904 24.2139 760.664 23.5059 764.57 23.5059C768.916 23.5059 772.993 24.3359 776.802 25.9961C780.659 27.6074 784.004 29.8535 786.836 32.7344C789.717 35.5664 791.963 38.9111 793.574 42.7686C795.234 46.5771 796.064 50.6543 796.064 55V130ZM835.908 130H814.888V24.9707H835.908V130ZM939.326 119.233C934.443 123.433 928.975 126.655 922.92 128.901C916.865 131.147 910.591 132.271 904.097 132.271C899.116 132.271 894.307 131.611 889.668 130.293C885.078 129.023 880.757 127.217 876.704 124.873C872.7 122.48 869.038 119.624 865.718 116.304C862.397 112.983 859.541 109.321 857.148 105.317C854.805 101.265 852.974 96.9434 851.655 92.3535C850.386 87.7148 849.751 82.9053 849.751 77.9248C849.751 72.9443 850.386 68.1348 851.655 63.4961C852.974 58.8574 854.805 54.5361 857.148 50.5322C859.541 46.4795 862.397 42.793 865.718 39.4727C869.038 36.1523 872.7 33.3203 876.704 30.9766C880.757 28.584 885.078 26.7529 889.668 25.4834C894.307 24.165 899.116 23.5059 904.097 23.5059C910.591 23.5059 916.865 24.6289 922.92 26.875C928.975 29.0723 934.443 32.2949 939.326 36.543L928.193 54.8535C925.117 51.5332 921.479 48.9941 917.28 47.2363C913.081 45.4297 908.687 44.5264 904.097 44.5264C899.458 44.5264 895.112 45.4053 891.06 47.1631C887.007 48.9209 883.467 51.3135 880.439 54.3408C877.412 57.3193 875.02 60.8594 873.262 64.9609C871.504 69.0137 870.625 73.335 870.625 77.9248C870.625 82.5146 871.504 86.8359 873.262 90.8887C875.02 94.8926 877.412 98.4082 880.439 101.436C883.467 104.463 887.007 106.855 891.06 108.613C895.112 110.371 899.458 111.25 904.097 111.25C908.687 111.25 913.081 110.371 917.28 108.613C921.479 106.807 925.117 104.243 928.193 100.923L939.326 119.233Z" fill="white"/>
</svg>